<svg id="Layer_1" data-name="Layer 1" xmlns="http://www.w3.org/2000/svg" viewBox="0 0 246.3325 116.378">
  <g>
    <g id="logoMark">
      <path id="logoMark_PathItem_" data-name="logoMark &lt;PathItem&gt;" d="M96.9411,51.3359s1.55-15.2424,26.3166-15.4111c25.1627-.1713,17.991-24.1415,17.991-24.1415S137.93,22.5105,116.3493,24.5565C96.24,26.4629,92.4958,41.4781,96.9411,51.3359Z" style="fill: #fff"/>
      <polygon id="logoMark_PathItem_2" data-name="logoMark &lt;PathItem&gt;" points="109.395 67.462 112.603 70.347 115.752 67.462 115.752 21.6 109.395 21.6 109.395 67.462" style="fill: #fff"/>
      <path id="logoMark_PathItem_3" data-name="logoMark &lt;PathItem&gt;" d="M97.57,57.867s2.4378-9.5462,23.8-9.8613c23.5973-.348,18.6992-16.4279,18.6992-16.4279s-2.31,8.5256-20.64,8.28C102.4085,39.63,95.1086,50.8575,97.57,57.867Z" style="fill: #fff"/>
      <path id="logoMark_PathItem_4" data-name="logoMark &lt;PathItem&gt;" d="M103.1645,61.25s.9851-4.53,14.0288-2.98c13.2612,1.575,12.3156-7.8818,12.3156-7.8818s-2.999,2.9549-12.8823,1.7082C107.7911,50.9812,102.4009,56.8609,103.1645,61.25Z" style="fill: #fff"/>
      <polygon id="logoMark_PathItem_5" data-name="logoMark &lt;PathItem&gt;" points="114.717 15.735 114.717 5 110.496 5 110.496 15.735 103.203 15.735 103.203 19.956 121.944 19.956 121.944 15.735 114.717 15.735" style="fill: #fff"/>
    </g>
    <g id="type">
      <path id="type_CompoundPathItem_" data-name="type &lt;CompoundPathItem&gt;" d="M5,82.4229H23.8369v5.4395H10.76v6.1582H21.3574V99.46H10.76v11.7578H5Z" style="fill: #fff"/>
      <path id="type_CompoundPathItem_2" data-name="type &lt;CompoundPathItem&gt;" d="M28.999,82.4229h5.76v28.7949h-5.76Z" style="fill: #fff"/>
      <path id="type_CompoundPathItem_3" data-name="type &lt;CompoundPathItem&gt;" d="M55.3164,111.2178l-4.64-10.6777H46.0381v10.6777h-5.76V82.4229H54.9561a5.416,5.416,0,0,1,5.6787,5.6787V94.86a5.3582,5.3582,0,0,1-3.919,5.4395l4.7988,10.9179Zm-.44-21.9961a1.2233,1.2233,0,0,0-1.3594-1.3593H46.0381v7.3183h7.4785a1.2234,1.2234,0,0,0,1.3594-1.3594Z" style="fill: #fff"/>
      <path id="type_CompoundPathItem_4" data-name="type &lt;CompoundPathItem&gt;" d="M84.3154,82.4229v5.4395H71.2383v5.9189H81.8359V99.22H71.2383v6.56H84.3154v5.4384H65.4785V82.4229Z" style="fill: #fff"/>
      <path id="type_CompoundPathItem_5" data-name="type &lt;CompoundPathItem&gt;" d="M102.0371,89.0616a1.2241,1.2241,0,0,0-1.36-1.3594H94.918a1.2241,1.2241,0,0,0-1.36,1.3594v2.72c0,.88.4805,1.16,1.36,1.3594l7.4384,1.6006c3.12.68,5.7588,2.56,5.7588,5.7588v5.1992a5.4159,5.4159,0,0,1-5.6787,5.6787h-8.958a5.4167,5.4167,0,0,1-5.68-5.6787v-3.68h5.6v2.56a1.2233,1.2233,0,0,0,1.3594,1.3593h6.2393a1.2233,1.2233,0,0,0,1.3593-1.3593V101.54c0-.88-.4794-1.16-1.3593-1.36l-7.44-1.6c-3.1191-.68-5.7588-2.5595-5.7588-5.7588V87.9424a5.4169,5.4169,0,0,1,5.68-5.68h8.4785a5.4161,5.4161,0,0,1,5.6787,5.68v3.3594h-5.5986Z" style="fill: #fff"/>
      <path id="type_CompoundPathItem_6" data-name="type &lt;CompoundPathItem&gt;" d="M113.5986,82.4229h5.76v28.7949h-5.76Z" style="fill: #fff"/>
      <path id="type_CompoundPathItem_7" data-name="type &lt;CompoundPathItem&gt;" d="M139.875,82.4229a5.4159,5.4159,0,0,1,5.6787,5.6787v17.4375a5.4159,5.4159,0,0,1-5.6787,5.6787H124.877V82.4229Zm-1.44,23.3565a1.2247,1.2247,0,0,0,1.36-1.36V89.2217a1.224,1.224,0,0,0-1.36-1.3593h-7.7979v17.917Z" style="fill: #fff"/>
      <path id="type_CompoundPathItem_8" data-name="type &lt;CompoundPathItem&gt;" d="M169.2734,82.4229v5.4395H156.1963v5.9189h10.5976V99.22H156.1963v6.56h13.0771v5.4384H150.4365V82.4229Z" style="fill: #fff"/>
      <path id="type_CompoundPathItem_9" data-name="type &lt;CompoundPathItem&gt;" d="M178.4492,88.3417l-5.5636,1.84.8463-4.8,6.9753-3.0391h4.5586l-5.0773,28.7949H174.43Z" style="fill: #fff"/>
      <path id="type_CompoundPathItem_10" data-name="type &lt;CompoundPathItem&gt;" d="M207.9835,92.1015a5.8688,5.8688,0,0,1-3.2811,4.3193,3.817,3.817,0,0,1,2.0784,4.3184l-.8463,4.8a7.1357,7.1357,0,0,1-6.7752,5.7588h-8.7979a4.6829,4.6829,0,0,1-4.7443-5.7588l.8463-4.8a5.8166,5.8166,0,0,1,3.6013-4.3184,3.9194,3.9194,0,0,1-1.7579-4.3193l.7335-4.16a7.1355,7.1355,0,0,1,6.7743-5.7588h8.1591a4.6828,4.6828,0,0,1,4.7434,5.7588ZM194.4522,98.98c-1.1191,0-1.9893.3994-2.201,1.6l-.6627,3.7588c-.1834,1.04.2775,1.6,1.3175,1.6h5.5987a1.7617,1.7617,0,0,0,1.8816-1.6l.6628-3.7588c.2116-1.2-.5178-1.6-1.6369-1.6Zm2.017-11.4385a1.7623,1.7623,0,0,0-1.8817,1.6l-.55,3.1192c-.2257,1.28.1982,1.6,1.3174,1.6h4.96c1.1192,0,1.6561-.32,1.8819-1.6l.55-3.1192c.1834-1.04-.2785-1.6-1.3176-1.6Z" style="fill: #fff"/>
      <path id="type_CompoundPathItem_11" data-name="type &lt;CompoundPathItem&gt;" d="M214.52,111.2978c-3.3594,0-5.27-2.3194-4.6774-5.6787l3.131-17.7569a6.7043,6.7043,0,0,1,6.68-5.68h8.999c3.3594,0,5.27,2.3194,4.6773,5.68l-3.131,17.7569a6.7041,6.7041,0,0,1-6.68,5.6787Zm1.2789-6.7989c-.1551.88.2408,1.3594,1.1207,1.3594h6.1191a1.502,1.502,0,0,0,1.5991-1.3594l2.7361-15.5175c.1552-.88-.24-1.3594-1.12-1.3594h-6.1192a1.5027,1.5027,0,0,0-1.6,1.3594Z" style="fill: #fff"/>
      <path id="type_CompoundPathItem_12" data-name="type &lt;CompoundPathItem&gt;" d="M238.5161,83.216a1.6969,1.6969,0,0,1,.8954.2377,1.8825,1.8825,0,0,1,.6654.6665,1.8034,1.8034,0,0,1-.0012,1.7884,1.8712,1.8712,0,0,1-.6639.6668,1.8138,1.8138,0,0,1-1.7886-.0006,1.8676,1.8676,0,0,1-.6665-.6661,1.8024,1.8024,0,0,1-.0013-1.7884,1.8774,1.8774,0,0,1,.6667-.6651,1.7014,1.7014,0,0,1,.894-.2392m0-1.0189a2.7189,2.7189,0,0,0-1.4144.3821,2.9028,2.9028,0,0,0-1.021,1.0184,2.8209,2.8209,0,0,0,0,2.8315,2.888,2.888,0,0,0,1.021,1.021,2.8321,2.8321,0,0,0,2.8327,0,2.8888,2.8888,0,0,0,1.0172-1.021,2.8215,2.8215,0,0,0,0-2.8315,2.9036,2.9036,0,0,0-1.0172-1.0184,2.7136,2.7136,0,0,0-1.4183-.3821Z" style="fill: #fff"/>
    </g>
  </g>
</svg>
