<svg id="Layer_1" data-name="Layer 1" xmlns="http://www.w3.org/2000/svg" viewBox="0 0 246.5648 51.0318">
  <g>
    <g id="tagline">
      <rect id="tagline_PathItem_" data-name="tagline &lt;PathItem&gt;" x="5" y="40.6951" width="1.1129" height="5.2621" style="fill: #fff"/>
      <path id="tagline_CompoundPathItem_" data-name="tagline &lt;CompoundPathItem&gt;" d="M12.5721,43.8909a1.4571,1.4571,0,0,0,.6536-.5764,1.716,1.716,0,0,0,.2261-.9,1.7864,1.7864,0,0,0-.2221-.9085,1.5,1.5,0,0,0-.645-.5985,2.2507,2.2507,0,0,0-1.0185-.212H9.49v5.2621h1.1129V44.0917h.8116l.9972,1.8655H13.64l-1.12-2.05C12.5362,43.9005,12.5565,43.8983,12.5721,43.8909Zm-1.9693-2.2863h.75a1.3191,1.3191,0,0,1,.5329.0938.6623.6623,0,0,1,.3165.2736.874.874,0,0,1,.104.4421.8382.8382,0,0,1-.104.4341.6433.6433,0,0,1-.3149.2624,1.4054,1.4054,0,0,1-.53.0868h-.755Z" style="fill: #fff"/>
      <path id="tagline_CompoundPathItem_2" data-name="tagline &lt;CompoundPathItem&gt;" d="M20.3249,40.94a2.65,2.65,0,0,0-2.5139,0,2.2622,2.2622,0,0,0-.8817.9215,3.47,3.47,0,0,0,0,2.9263,2.27,2.27,0,0,0,.8817.9226,2.6472,2.6472,0,0,0,2.5139.0011,2.2675,2.2675,0,0,0,.8838-.9217,3.4606,3.4606,0,0,0,0-2.9283A2.2676,2.2676,0,0,0,20.3249,40.94Zm-.0848,3.326a1.2764,1.2764,0,0,1-.4663.58,1.3519,1.3519,0,0,1-1.4081,0,1.2759,1.2759,0,0,1-.4664-.58,2.7539,2.7539,0,0,1,0-1.8806,1.2759,1.2759,0,0,1,.4664-.58,1.3519,1.3519,0,0,1,1.4081,0,1.2764,1.2764,0,0,1,.4663.58,2.7524,2.7524,0,0,1,0,1.8806Z" style="fill: #fff"/>
      <polygon id="tagline_PathItem_2" data-name="tagline &lt;PathItem&gt;" points="28.111 44.004 28.064 44.004 25.793 40.695 24.816 40.695 24.816 45.957 25.929 45.957 25.929 42.645 25.968 42.645 28.257 45.957 29.218 45.957 29.218 40.695 28.111 40.695 28.111 44.004" style="fill: #fff"/>
      <path id="tagline_PathItem_3" data-name="tagline &lt;PathItem&gt;" d="M40.2785,43.4285a1.9319,1.9319,0,0,0-.4987-.3159,3.2664,3.2664,0,0,0-.6319-.2049l-.4729-.1131a2.8137,2.8137,0,0,1-.324-.0938,1.3332,1.3332,0,0,1-.267-.1313.5856.5856,0,0,1-.1812-.1817.43.43,0,0,1-.06-.2462.4963.4963,0,0,1,.0989-.3028.6422.6422,0,0,1,.2866-.21,1.2328,1.2328,0,0,1,.46-.0757,1.0474,1.0474,0,0,1,.635.1726.6484.6484,0,0,1,.2644.4825h1.0665a1.4738,1.4738,0,0,0-.2519-.8267,1.6218,1.6218,0,0,0-.6824-.5582,2.4429,2.4429,0,0,0-1.0235-.2,2.5186,2.5186,0,0,0-1.0281.2,1.7115,1.7115,0,0,0-.71.5582,1.3728,1.3728,0,0,0-.2559.8348,1.1764,1.1764,0,0,0,.3831.9276,2.4059,2.4059,0,0,0,1.0508.5057l.5728.1444a3.1636,3.1636,0,0,1,.4871.1534.8131.8131,0,0,1,.3033.2059.4415.4415,0,0,1,.104.2978.5313.5313,0,0,1-.1156.3371.7488.7488,0,0,1-.3251.2282,1.3291,1.3291,0,0,1-.492.0827,1.4013,1.4013,0,0,1-.5153-.0888.825.825,0,0,1-.3624-.2644.7987.7987,0,0,1-.153-.4411H36.5628a1.7177,1.7177,0,0,0,.2761.9518,1.6138,1.6138,0,0,0,.7348.5794,2.8853,2.8853,0,0,0,1.1089.1958,2.8037,2.8037,0,0,0,1.0987-.1938A1.5579,1.5579,0,0,0,40.48,45.29a1.4508,1.4508,0,0,0,.2453-.8358,1.4114,1.4114,0,0,0-.1192-.5834A1.3366,1.3366,0,0,0,40.2785,43.4285Z" style="fill: #fff"/>
      <polygon id="tagline_PathItem_4" data-name="tagline &lt;PathItem&gt;" points="47.301 42.866 45.043 42.866 45.043 40.695 43.93 40.695 43.93 45.957 45.043 45.957 45.043 43.784 47.301 43.784 47.301 45.957 48.411 45.957 48.411 40.695 47.301 40.695 47.301 42.866" style="fill: #fff"/>
      <path id="tagline_CompoundPathItem_3" data-name="tagline &lt;CompoundPathItem&gt;" d="M53.32,40.6951l-1.8164,5.2621h1.192l.39-1.2h1.9l.39,1.2h1.1922L54.754,40.6951Zm.0486,3.1938.6479-1.9916h.0408l.6467,1.9916Z" style="fill: #fff"/>
      <path id="tagline_CompoundPathItem_4" data-name="tagline &lt;CompoundPathItem&gt;" d="M62.7419,43.8909a1.4571,1.4571,0,0,0,.6536-.5764,1.716,1.716,0,0,0,.2261-.9,1.7874,1.7874,0,0,0-.222-.9085,1.5014,1.5014,0,0,0-.645-.5985,2.2513,2.2513,0,0,0-1.0185-.212H59.66v5.2621h1.1129V44.0917h.8116l.9972,1.8655h1.228l-1.1195-2.05C62.706,43.9005,62.7263,43.8983,62.7419,43.8909Zm-1.9693-2.2863h.75a1.3191,1.3191,0,0,1,.5329.0938.6619.6619,0,0,1,.3165.2736.873.873,0,0,1,.104.4421.8372.8372,0,0,1-.104.4341.6424.6424,0,0,1-.3149.2624,1.4054,1.4054,0,0,1-.5295.0868h-.755Z" style="fill: #fff"/>
      <path id="tagline_CompoundPathItem_5" data-name="tagline &lt;CompoundPathItem&gt;" d="M69.9643,40.9222a2.1254,2.1254,0,0,0-1.02-.2271H66.8679v5.2621h1.1129v-1.706h.9352a2.2048,2.2048,0,0,0,1.0341-.224,1.5527,1.5527,0,0,0,.6537-.6239,1.85,1.85,0,0,0,.226-.9256,1.8766,1.8766,0,0,0-.222-.9256A1.5672,1.5672,0,0,0,69.9643,40.9222ZM69.58,42.937a.7392.7392,0,0,1-.3134.3109,1.12,1.12,0,0,1-.531.112h-.755V41.6046h.75a1.1575,1.1575,0,0,1,.5345.109.721.721,0,0,1,.3149.3058.9677.9677,0,0,1,.1039.4583A.9806.9806,0,0,1,69.58,42.937Z" style="fill: #fff"/>
      <polygon id="tagline_PathItem_5" data-name="tagline &lt;PathItem&gt;" points="75.127 43.784 77.378 43.784 77.378 42.866 75.127 42.866 75.127 41.613 77.561 41.613 77.561 40.695 74.015 40.695 74.015 45.957 77.571 45.957 77.571 45.04 75.127 45.04 75.127 43.784" style="fill: #fff"/>
      <polygon id="tagline_PathItem_6" data-name="tagline &lt;PathItem&gt;" points="84.202 44.004 84.155 44.004 81.884 40.695 80.907 40.695 80.907 45.957 82.02 45.957 82.02 42.645 82.059 42.645 84.348 45.957 85.309 45.957 85.309 40.695 84.202 40.695 84.202 44.004" style="fill: #fff"/>
      <path id="tagline_PathItem_7" data-name="tagline &lt;PathItem&gt;" d="M92.2319,43.4285a1.9313,1.9313,0,0,0-.4986-.3159,3.2686,3.2686,0,0,0-.6319-.2049l-.4729-.1131a2.8155,2.8155,0,0,1-.3241-.0938,1.33,1.33,0,0,1-.2669-.1313.5835.5835,0,0,1-.1812-.1817.43.43,0,0,1-.0606-.2462.4964.4964,0,0,1,.099-.3028.6422.6422,0,0,1,.2866-.21,1.2325,1.2325,0,0,1,.46-.0757,1.0468,1.0468,0,0,1,.6349.1726.6485.6485,0,0,1,.2645.4825h1.0664a1.4723,1.4723,0,0,0-.2519-.8267,1.6215,1.6215,0,0,0-.6823-.5582,2.4436,2.4436,0,0,0-1.0235-.2,2.5186,2.5186,0,0,0-1.0281.2,1.7124,1.7124,0,0,0-.71.5582,1.3727,1.3727,0,0,0-.2558.8348,1.1764,1.1764,0,0,0,.383.9276,2.4065,2.4065,0,0,0,1.0508.5057l.5729.1444a3.1585,3.1585,0,0,1,.487.1534.8123.8123,0,0,1,.3033.2059.4415.4415,0,0,1,.104.2978.5312.5312,0,0,1-.1155.3371.75.75,0,0,1-.3251.2282,1.33,1.33,0,0,1-.4921.0827,1.4013,1.4013,0,0,1-.5153-.0888.8261.8261,0,0,1-.3624-.2644.7979.7979,0,0,1-.1529-.4411H88.5163a1.7161,1.7161,0,0,0,.2761.9518,1.6138,1.6138,0,0,0,.7348.5794,2.8847,2.8847,0,0,0,1.1088.1958,2.8046,2.8046,0,0,0,1.0988-.1938,1.5576,1.5576,0,0,0,.6985-.5481,1.4493,1.4493,0,0,0,.2453-.8358,1.41,1.41,0,0,0-.1192-.5834A1.3339,1.3339,0,0,0,92.2319,43.4285Z" style="fill: #fff"/>
      <rect id="tagline_PathItem_8" data-name="tagline &lt;PathItem&gt;" x="100.0211" y="40.6951" width="1.1129" height="5.2621" style="fill: #fff"/>
      <path id="tagline_CompoundPathItem_6" data-name="tagline &lt;CompoundPathItem&gt;" d="M107.5936,43.8909a1.4573,1.4573,0,0,0,.6537-.5764,1.7169,1.7169,0,0,0,.2261-.9,1.7874,1.7874,0,0,0-.2221-.9085,1.5014,1.5014,0,0,0-.645-.5985,2.251,2.251,0,0,0-1.0185-.212h-2.0764v5.2621h1.1129V44.0917h.8117l.9972,1.8655h1.2279l-1.12-2.05C107.5577,43.9005,107.5779,43.8983,107.5936,43.8909Zm-1.9693-2.2863h.75a1.32,1.32,0,0,1,.533.0938.6616.6616,0,0,1,.3164.2736.874.874,0,0,1,.104.4421.8382.8382,0,0,1-.104.4341.6424.6424,0,0,1-.3149.2624,1.4054,1.4054,0,0,1-.5295.0868h-.755Z" style="fill: #fff"/>
      <path id="tagline_CompoundPathItem_7" data-name="tagline &lt;CompoundPathItem&gt;" d="M115.3464,40.94a2.65,2.65,0,0,0-2.5139,0,2.2622,2.2622,0,0,0-.8817.9215,3.4706,3.4706,0,0,0,0,2.9263,2.27,2.27,0,0,0,.8817.9226,2.6472,2.6472,0,0,0,2.5139.0011,2.2669,2.2669,0,0,0,.8838-.9217,3.4606,3.4606,0,0,0,0-2.9283A2.267,2.267,0,0,0,115.3464,40.94Zm-.0847,3.326a1.2766,1.2766,0,0,1-.4664.58,1.3519,1.3519,0,0,1-1.4081,0,1.2766,1.2766,0,0,1-.4664-.58,2.7539,2.7539,0,0,1,0-1.8806,1.2766,1.2766,0,0,1,.4664-.58,1.3519,1.3519,0,0,1,1.4081,0,1.2766,1.2766,0,0,1,.4664.58,2.7539,2.7539,0,0,1,0,1.8806Z" style="fill: #fff"/>
      <polygon id="tagline_PathItem_9" data-name="tagline &lt;PathItem&gt;" points="123.132 44.004 123.085 44.004 120.814 40.695 119.837 40.695 119.837 45.957 120.95 45.957 120.95 42.645 120.989 42.645 123.278 45.957 124.239 45.957 124.239 40.695 123.132 40.695 123.132 44.004" style="fill: #fff"/>
      <path id="tagline_PathItem_10" data-name="tagline &lt;PathItem&gt;" d="M133.5436,42.3485a1.13,1.13,0,0,0-1.137,0,1.1639,1.1639,0,0,0-.41.4088,1.1326,1.1326,0,0,0,0,1.1366,1.1578,1.1578,0,0,0,.41.41,1.1365,1.1365,0,0,0,1.137,0,1.1593,1.1593,0,0,0,.4084-.41,1.1326,1.1326,0,0,0,0-1.1366A1.1655,1.1655,0,0,0,133.5436,42.3485Z" style="fill: #fff"/>
      <path id="tagline_CompoundPathItem_8" data-name="tagline &lt;CompoundPathItem&gt;" d="M144.8036,40.9222a2.1254,2.1254,0,0,0-1.02-.2271h-2.0763v5.2621H142.82v-1.706h.9353a2.2054,2.2054,0,0,0,1.0341-.224,1.553,1.553,0,0,0,.6536-.6239,1.8494,1.8494,0,0,0,.2261-.9256,1.8766,1.8766,0,0,0-.2221-.9256A1.5666,1.5666,0,0,0,144.8036,40.9222Zm-.384,2.0148a.74.74,0,0,1-.3135.3109,1.12,1.12,0,0,1-.5309.112H142.82V41.6046h.75a1.1573,1.1573,0,0,1,.5345.109.7217.7217,0,0,1,.315.3058.9689.9689,0,0,1,.1039.4583A.9818.9818,0,0,1,144.42,42.937Z" style="fill: #fff"/>
      <path id="tagline_CompoundPathItem_9" data-name="tagline &lt;CompoundPathItem&gt;" d="M151.9362,43.8909a1.4573,1.4573,0,0,0,.6535-.5764,1.716,1.716,0,0,0,.2262-.9,1.7884,1.7884,0,0,0-.2221-.9085,1.5016,1.5016,0,0,0-.6451-.5985,2.25,2.25,0,0,0-1.0185-.212h-2.0763v5.2621h1.1128V44.0917h.8117l.9972,1.8655h1.228l-1.12-2.05C151.9,43.9005,151.9205,43.8983,151.9362,43.8909Zm-1.97-2.2863h.75a1.32,1.32,0,0,1,.5331.0938.6621.6621,0,0,1,.3164.2736.874.874,0,0,1,.104.4421.8382.8382,0,0,1-.104.4341.6431.6431,0,0,1-.315.2624,1.4042,1.4042,0,0,1-.5294.0868h-.7551Z" style="fill: #fff"/>
      <path id="tagline_CompoundPathItem_10" data-name="tagline &lt;CompoundPathItem&gt;" d="M159.69,40.94a2.6507,2.6507,0,0,0-2.514,0,2.2622,2.2622,0,0,0-.8817.9215,3.47,3.47,0,0,0,0,2.9263,2.27,2.27,0,0,0,.8817.9226,2.6474,2.6474,0,0,0,2.514.0011,2.268,2.268,0,0,0,.8837-.9217,3.4606,3.4606,0,0,0,0-2.9283A2.268,2.268,0,0,0,159.69,40.94Zm-.0849,3.326a1.2758,1.2758,0,0,1-.4663.58,1.3519,1.3519,0,0,1-1.4081,0,1.2759,1.2759,0,0,1-.4664-.58,2.7539,2.7539,0,0,1,0-1.8806,1.2759,1.2759,0,0,1,.4664-.58,1.3519,1.3519,0,0,1,1.4081,0,1.2758,1.2758,0,0,1,.4663.58,2.7524,2.7524,0,0,1,0,1.8806Z" style="fill: #fff"/>
      <polygon id="tagline_PathItem_11" data-name="tagline &lt;PathItem&gt;" points="166.157 44.693 166.108 44.693 164.836 40.695 163.6 40.695 165.416 45.957 166.85 45.957 168.664 40.695 167.431 40.695 166.157 44.693" style="fill: #fff"/>
      <polygon id="tagline_PathItem_12" data-name="tagline &lt;PathItem&gt;" points="172.869 43.784 175.119 43.784 175.119 42.866 172.869 42.866 172.869 41.613 175.302 41.613 175.302 40.695 171.756 40.695 171.756 45.957 175.312 45.957 175.312 45.04 172.869 45.04 172.869 43.784" style="fill: #fff"/>
      <path id="tagline_CompoundPathItem_11" data-name="tagline &lt;CompoundPathItem&gt;" d="M181.7305,43.8909a1.4573,1.4573,0,0,0,.6535-.5764,1.7151,1.7151,0,0,0,.2262-.9,1.7884,1.7884,0,0,0-.2221-.9085,1.5011,1.5011,0,0,0-.6451-.5985,2.25,2.25,0,0,0-1.0185-.212h-2.0763v5.2621h1.1129V44.0917h.8117l.9971,1.8655h1.228l-1.1194-2.05C181.6945,43.9005,181.7148,43.8983,181.7305,43.8909Zm-1.9694-2.2863h.75a1.32,1.32,0,0,1,.5331.0938.6621.6621,0,0,1,.3164.2736.874.874,0,0,1,.104.4421.8382.8382,0,0,1-.104.4341.6426.6426,0,0,1-.315.2624,1.4042,1.4042,0,0,1-.5294.0868h-.755Z" style="fill: #fff"/>
      <path id="tagline_CompoundPathItem_12" data-name="tagline &lt;CompoundPathItem&gt;" d="M189.3243,43.3953a1.1975,1.1975,0,0,0-.5638-.17v-.0515a1.3885,1.3885,0,0,0,.49-.209,1.0578,1.0578,0,0,0,.3376-.3805,1.1349,1.1349,0,0,0,.1237-.541,1.2678,1.2678,0,0,0-.1953-.7,1.2974,1.2974,0,0,0-.5835-.4775,2.4054,2.4054,0,0,0-.9685-.1715h-2.1072v5.2621h2.2485a2.3323,2.3323,0,0,0,.9943-.19,1.41,1.41,0,0,0,.61-.5178,1.3706,1.3706,0,0,0,.207-.7469,1.3058,1.3058,0,0,0-.1645-.6693A1.21,1.21,0,0,0,189.3243,43.3953ZM186.97,41.5944h.8449a.8482.8482,0,0,1,.5718.1747.5775.5775,0,0,1,.2019.46.6065.6065,0,0,1-.104.3563.6748.6748,0,0,1-.2826.23.9686.9686,0,0,1-.4073.0807H186.97Zm1.5853,3.2746a1.0492,1.0492,0,0,1-.6783.1787h-.907V43.65h.9327a1.0483,1.0483,0,0,1,.4608.0949.7185.7185,0,0,1,.2993.2625.7042.7042,0,0,1,.1055.3855A.5906.5906,0,0,1,188.5551,44.869Z" style="fill: #fff"/>
      <path id="tagline_PathItem_13" data-name="tagline &lt;PathItem&gt;" d="M196.6445,43.4285a1.9313,1.9313,0,0,0-.4986-.3159,3.2686,3.2686,0,0,0-.6319-.2049l-.4729-.1131a2.8155,2.8155,0,0,1-.3241-.0938,1.33,1.33,0,0,1-.2669-.1313.5835.5835,0,0,1-.1812-.1817.43.43,0,0,1-.0606-.2462.4969.4969,0,0,1,.0989-.3028.6431.6431,0,0,1,.2867-.21,1.2323,1.2323,0,0,1,.46-.0757,1.047,1.047,0,0,1,.635.1726.6485.6485,0,0,1,.2645.4825H197.02a1.4723,1.4723,0,0,0-.2519-.8267,1.6215,1.6215,0,0,0-.6823-.5582,2.4436,2.4436,0,0,0-1.0235-.2,2.5186,2.5186,0,0,0-1.0281.2,1.7124,1.7124,0,0,0-.71.5582,1.3727,1.3727,0,0,0-.2558.8348,1.1764,1.1764,0,0,0,.383.9276,2.4065,2.4065,0,0,0,1.0508.5057l.5729.1444a3.162,3.162,0,0,1,.487.1534.8123.8123,0,0,1,.3033.2059.4415.4415,0,0,1,.104.2978.5307.5307,0,0,1-.1156.3371.7491.7491,0,0,1-.325.2282,1.33,1.33,0,0,1-.4921.0827,1.4013,1.4013,0,0,1-.5153-.0888.8261.8261,0,0,1-.3624-.2644.7979.7979,0,0,1-.1529-.4411h-1.0765a1.7161,1.7161,0,0,0,.2761.9518,1.6138,1.6138,0,0,0,.7348.5794,2.8847,2.8847,0,0,0,1.1088.1958,2.8046,2.8046,0,0,0,1.0988-.1938,1.5576,1.5576,0,0,0,.6985-.5481,1.4493,1.4493,0,0,0,.2453-.8358,1.41,1.41,0,0,0-.1192-.5834A1.3339,1.3339,0,0,0,196.6445,43.4285Z" style="fill: #fff"/>
      <path id="tagline_PathItem_14" data-name="tagline &lt;PathItem&gt;" d="M205.9448,45.0113l.7681-.753a9.3866,9.3866,0,0,0,.84-.8459,2.4959,2.4959,0,0,0,.4149-.644,1.5681,1.5681,0,0,0,.1166-.5885,1.4224,1.4224,0,0,0-.2337-.8065,1.5639,1.5639,0,0,0-.6541-.5511,2.2681,2.2681,0,0,0-.9852-.1989,2.1559,2.1559,0,0,0-.971.208,1.5546,1.5546,0,0,0-.6551.5884,1.6757,1.6757,0,0,0-.2342.8964h1.0563a.9059.9059,0,0,1,.0974-.434.6738.6738,0,0,1,.2776-.2807.875.875,0,0,1,.4215-.0968.9145.9145,0,0,1,.4133.0908.7064.7064,0,0,1,.2882.2594.738.738,0,0,1,.105.4.8915.8915,0,0,1-.0848.3866,1.571,1.571,0,0,1-.2478.3634q-.1627.1848-.4023.4169l-1.873,1.7342v.8015h3.7516v-.91h-2.21Z" style="fill: #fff"/>
      <polygon id="tagline_PathItem_15" data-name="tagline &lt;PathItem&gt;" points="211.269 41.605 213.811 41.605 213.811 41.641 211.629 45.957 212.777 45.957 214.961 41.618 214.961 40.695 211.269 40.695 211.269 41.605" style="fill: #fff"/>
      <path id="tagline_PathItem_16" data-name="tagline &lt;PathItem&gt;" d="M218.5881,41.5379a.5947.5947,0,0,0-.4355.18.587.587,0,0,0-.1812.432.62.62,0,0,0,.6167.6168.5834.5834,0,0,0,.3059-.0838.6545.6545,0,0,0,.2246-.2241.5963.5963,0,0,0-.0989-.7409A.5983.5983,0,0,0,218.5881,41.5379Z" style="fill: #fff"/>
      <path id="tagline_PathItem_17" data-name="tagline &lt;PathItem&gt;" d="M218.5881,44.117a.5956.5956,0,0,0-.4355.1807.5846.5846,0,0,0-.1812.431.6178.6178,0,0,0,.6167.6167.5742.5742,0,0,0,.3059-.0837.6524.6524,0,0,0,.2246-.2231.5963.5963,0,0,0-.0989-.7409A.5993.5993,0,0,0,218.5881,44.117Z" style="fill: #fff"/>
      <polygon id="tagline_PathItem_18" data-name="tagline &lt;PathItem&gt;" points="222.492 41.52 222.492 42.506 223.697 41.751 223.728 41.751 223.728 45.957 224.84 45.957 224.84 40.695 223.795 40.695 222.492 41.52" style="fill: #fff"/>
      <polygon id="tagline_PathItem_19" data-name="tagline &lt;PathItem&gt;" points="228.4 40.695 228.4 41.605 230.941 41.605 230.941 41.641 228.759 45.957 229.908 45.957 232.092 41.618 232.092 40.695 228.4 40.695" style="fill: #fff"/>
    </g>
    <g id="type">
      <path id="type_CompoundPathItem_" data-name="type &lt;CompoundPathItem&gt;" d="M5.2323,5.24H24.0692V10.68H10.9921V16.838H21.59v5.4395H10.9921V34.0353h-5.76Z" style="fill: #fff"/>
      <path id="type_CompoundPathItem_2" data-name="type &lt;CompoundPathItem&gt;" d="M29.2313,5.24h5.76V34.0353h-5.76Z" style="fill: #fff"/>
      <path id="type_CompoundPathItem_3" data-name="type &lt;CompoundPathItem&gt;" d="M55.5487,34.0353l-4.64-10.6777H46.27V34.0353h-5.76V5.24H55.1883a5.416,5.416,0,0,1,5.6788,5.6787v6.7588a5.3581,5.3581,0,0,1-3.919,5.4394l4.7988,10.918Zm-.44-21.9961A1.2234,1.2234,0,0,0,53.7489,10.68H46.27v7.3184h7.4785a1.2234,1.2234,0,0,0,1.3594-1.3594Z" style="fill: #fff"/>
      <path id="type_CompoundPathItem_4" data-name="type &lt;CompoundPathItem&gt;" d="M84.5477,5.24V10.68H71.4706v5.919H82.0682v5.4385H71.4706v6.56H84.5477v5.4385H65.7108V5.24Z" style="fill: #fff"/>
      <path id="type_CompoundPathItem_5" data-name="type &lt;CompoundPathItem&gt;" d="M102.2694,11.879a1.2241,1.2241,0,0,0-1.36-1.3593H95.15a1.2241,1.2241,0,0,0-1.36,1.3593v2.72c0,.88.48,1.16,1.36,1.3594l7.4384,1.6005c3.12.68,5.7588,2.56,5.7588,5.7588v5.1992a5.416,5.416,0,0,1-5.6787,5.6788h-8.958a5.4168,5.4168,0,0,1-5.68-5.6788v-3.68h5.6v2.56A1.2234,1.2234,0,0,0,94.99,28.756h6.2393a1.2233,1.2233,0,0,0,1.3593-1.3594v-3.039c0-.88-.48-1.16-1.3593-1.36l-7.4395-1.6c-3.1191-.68-5.7588-2.56-5.7588-5.7588V10.76a5.417,5.417,0,0,1,5.68-5.68h8.4785a5.4162,5.4162,0,0,1,5.6787,5.68v3.3594h-5.5986Z" style="fill: #fff"/>
      <path id="type_CompoundPathItem_6" data-name="type &lt;CompoundPathItem&gt;" d="M113.8309,5.24h5.76V34.0353h-5.76Z" style="fill: #fff"/>
      <path id="type_CompoundPathItem_7" data-name="type &lt;CompoundPathItem&gt;" d="M140.1073,5.24a5.4159,5.4159,0,0,1,5.6787,5.6787V28.3566a5.4159,5.4159,0,0,1-5.6787,5.6787H125.1092V5.24Zm-1.44,23.3564a1.2247,1.2247,0,0,0,1.36-1.36V12.0392a1.2241,1.2241,0,0,0-1.36-1.3594H130.869v17.917Z" style="fill: #fff"/>
      <path id="type_CompoundPathItem_8" data-name="type &lt;CompoundPathItem&gt;" d="M169.5057,5.24V10.68H156.4286v5.919h10.5976v5.4385H156.4286v6.56h13.0771v5.4385H150.6688V5.24Z" style="fill: #fff"/>
      <path id="type_CompoundPathItem_9" data-name="type &lt;CompoundPathItem&gt;" d="M178.6815,11.1592l-5.5637,1.84.8464-4.8L180.94,5.16h4.5586l-5.0773,28.7949H174.662Z" style="fill: #fff"/>
      <path id="type_CompoundPathItem_10" data-name="type &lt;CompoundPathItem&gt;" d="M208.2158,14.9189a5.8688,5.8688,0,0,1-3.2811,4.3194,3.8169,3.8169,0,0,1,2.0784,4.3183l-.8464,4.8a7.1355,7.1355,0,0,1-6.7751,5.7588h-8.7979a4.6829,4.6829,0,0,1-4.7443-5.7588l.8463-4.8a5.8167,5.8167,0,0,1,3.6013-4.3183,3.9193,3.9193,0,0,1-1.7579-4.3194l.7335-4.16A7.1354,7.1354,0,0,1,196.0468,5h8.1592a4.6828,4.6828,0,0,1,4.7434,5.7588Zm-13.5313,6.879c-1.1191,0-1.9893.3994-2.201,1.6l-.6627,3.7587c-.1834,1.04.2775,1.6,1.3175,1.6h5.5986a1.7617,1.7617,0,0,0,1.8817-1.6l.6628-3.7587c.2116-1.2-.5178-1.6-1.6369-1.6Zm2.0169-11.4385a1.7622,1.7622,0,0,0-1.8816,1.6l-.55,3.1191c-.2258,1.28.1982,1.6006,1.3174,1.6006h4.96c1.1192,0,1.6561-.32,1.8819-1.6006l.55-3.1191c.1833-1.04-.2785-1.6-1.3176-1.6Z" style="fill: #fff"/>
      <path id="type_CompoundPathItem_11" data-name="type &lt;CompoundPathItem&gt;" d="M214.7519,34.1152c-3.3594,0-5.27-2.3193-4.6774-5.6787l3.131-17.7568a6.7042,6.7042,0,0,1,6.68-5.68h8.999c3.3594,0,5.27,2.3193,4.6773,5.68l-3.131,17.7568a6.704,6.704,0,0,1-6.68,5.6787Zm1.2789-6.7988c-.1551.88.2408,1.3594,1.1207,1.3594h6.1191a1.502,1.502,0,0,0,1.5991-1.3594l2.7361-15.5176c.1552-.88-.24-1.3593-1.12-1.3593H220.367a1.5027,1.5027,0,0,0-1.6,1.3593Z" style="fill: #fff"/>
      <path id="type_CompoundPathItem_12" data-name="type &lt;CompoundPathItem&gt;" d="M238.7484,6.0335a1.6978,1.6978,0,0,1,.8954.2376,1.8836,1.8836,0,0,1,.6654.6666,1.8034,1.8034,0,0,1-.0012,1.7884,1.8712,1.8712,0,0,1-.6639.6668,1.8141,1.8141,0,0,1-1.7886-.0007,1.866,1.866,0,0,1-.6665-.6661,1.8028,1.8028,0,0,1-.0014-1.7884,1.8793,1.8793,0,0,1,.6668-.6651,1.7023,1.7023,0,0,1,.894-.2391m0-1.0189a2.7189,2.7189,0,0,0-1.4144.3821,2.9011,2.9011,0,0,0-1.021,1.0184,2.8207,2.8207,0,0,0,0,2.8314,2.8867,2.8867,0,0,0,1.021,1.0211,2.8321,2.8321,0,0,0,2.8327,0,2.8883,2.8883,0,0,0,1.0172-1.0211,2.8213,2.8213,0,0,0,0-2.8314,2.9028,2.9028,0,0,0-1.0172-1.0184,2.7136,2.7136,0,0,0-1.4183-.3821Z" style="fill: #fff"/>
    </g>
  </g>
</svg>
